ffmpeg started on 2016-12-12 at 03:02:22
Report written to "Output/theora/results/ffmpeg/old_town_cross_2160p503000k.log"
Command line:
Tools/ffmpeg/ffmpeg -benchmark -y -i Input/y4m/old_town_cross_2160p50.y4m -c:v libtheora -b:v 3000k -an Output/theora/encoded/old_town_cross_2160p503000k.mkv
ffmpeg version N-82227-gdb23fde Copyright (c) 2000-2016 the FFmpeg developers
  built with gcc 5.4.0 (Ubuntu 5.4.0-6ubuntu1~16.04.2) 20160609
  configuration: --prefix=/home/jaroslav/ffmpeg_build --pkg-config-flags=--static --extra-cflags=-I/home/jaroslav/ffmpeg_build/include --extra-ldflags=-L/home/jaroslav/ffmpeg_build/lib --bindir=/home/jaroslav/bin --enable-gpl --enable-libass --enable-libfdk-aac --enable-libfreetype --enable-libmp3lame --enable-libopus --enable-libtheora --enable-libvorbis --enable-libvpx --enable-libx264 --enable-libx265 --enable-nvenc --enable-libmfx --enable-libxvid --enable-libgsm --enable-libopencore-amrnb --enable-version3 --enable-nonfree
  libavutil      55. 35.100 / 55. 35.100
  libavcodec     57. 66.101 / 57. 66.101
  libavformat    57. 57.100 / 57. 57.100
  libavdevice    57.  2.100 / 57.  2.100
  libavfilter     6. 66.100 /  6. 66.100
  libswscale      4.  3.100 /  4.  3.100
  libswresample   2.  4.100 /  2.  4.100
  libpostproc    54.  2.100 / 54.  2.100
Input #0, yuv4mpegpipe, from 'Input/y4m/old_town_cross_2160p50.y4m':
  Duration: 00:00:10.00, start: 0.000000, bitrate: 4976642 kb/s
    Stream #0:0: Video: rawvideo (I420 / 0x30323449), yuv420p(progressive), 3840x2160, SAR 1:1 DAR 16:9, 50 fps, 50 tbr, 50 tbn, 50 tbc
Output #0, matroska, to 'Output/theora/encoded/old_town_cross_2160p503000k.mkv':
  Metadata:
    encoder         : Lavf57.57.100
    Stream #0:0: Video: theora (libtheora) (theo / 0x6F656874), yuv420p, 3840x2160 [SAR 1:1 DAR 16:9], q=2-31, 3000 kb/s, 50 fps, 1k tbn, 50 tbc
    Metadata:
      encoder         : Lavc57.66.101 libtheora
Stream mapping:
  Stream #0:0 -> #0:0 (rawvideo (native) -> theora (libtheora))
Press [q] to stop, [?] for help
frame=    3 fps=0.0 q=-0.0 size=       4kB time=00:00:00.04 bitrate= 779.5kbits/s speed=0.0566x    frame=    5 fps=3.7 q=-0.0 size=       4kB time=00:00:00.08 bitrate= 394.6kbits/s speed=0.0596x    frame=    7 fps=3.5 q=-0.0 size=       4kB time=00:00:00.12 bitrate= 264.1kbits/s speed=0.0608x    frame=    9 fps=3.2 q=-0.0 size=       4kB time=00:00:00.16 bitrate= 198.5kbits/s speed=0.057x    frame=   11 fps=3.2 q=-0.0 size=       4kB time=00:00:00.20 bitrate= 159.0kbits/s speed=0.058x    frame=   13 fps=3.2 q=-0.0 size=     189kB time=00:00:00.24 bitrate=6422.5kbits/s speed=0.0588x    frame=   16 fps=3.3 q=-0.0 size=     189kB time=00:00:00.30 bitrate=5142.3kbits/s speed=0.0614x    frame=   18 fps=3.2 q=-0.0 size=     189kB time=00:00:00.34 bitrate=4539.1kbits/s speed=0.0615x    frame=   20 fps=3.2 q=-0.0 size=     189kB time=00:00:00.38 bitrate=4062.6kbits/s speed=0.0616x    frame=   22 fps=3.2 q=-0.0 size=     189kB time=00:00:00.42 bitrate=3676.6kbits/s speed=0.0616x    frame=   23 fps=3.1 q=-0.0 size=     189kB time=00:00:00.44 bitrate=3509.8kbits/s speed=0.0586x    frame=   25 fps=3.1 q=-0.0 size=     403kB time=00:00:00.48 bitrate=6866.8kbits/s speed=0.0589x    frame=   28 fps=3.1 q=-0.0 size=     403kB time=00:00:00.54 bitrate=6105.3kbits/s speed=0.0603x    frame=   30 fps=3.1 q=-0.0 size=     403kB time=00:00:00.58 bitrate=5684.9kbits/s speed=0.0604x    frame=   31 fps=3.1 q=-0.0 size=     403kB time=00:00:00.60 bitrate=5495.8kbits/s speed=0.0593x    frame=   33 fps=3.1 q=-0.0 size=     403kB time=00:00:00.64 bitrate=5152.8kbits/s speed=0.0595x    frame=   35 fps=3.1 q=-0.0 size=     403kB time=00:00:00.68 bitrate=4850.1kbits/s speed=0.0596x    frame=   37 fps=3.1 q=-0.0 size=     609kB time=00:00:00.72 bitrate=6914.0kbits/s speed=0.0597x    frame=   40 fps=3.1 q=-0.0 size=     609kB time=00:00:00.78 bitrate=6382.8kbits/s speed=0.0607x    frame=   42 fps=3.1 q=-0.0 size=     609kB time=00:00:00.82 bitrate=6071.8kbits/s speed=0.0608x    frame=   44 fps=3.1 q=-0.0 size=     609kB time=00:00:00.86 bitrate=5789.7kbits/s speed=0.0609x    frame=   46 fps=3.1 q=-0.0 size=     609kB time=00:00:00.90 bitrate=5532.7kbits/s speed=0.0609x    frame=   48 fps=3.1 q=-0.0 size=     609kB time=00:00:00.94 bitrate=5297.5kbits/s speed=0.061x    frame=   51 fps=3.1 q=-0.0 size=     679kB time=00:00:01.00 bitrate=5560.4kbits/s speed=0.0617x    frame=   53 fps=3.1 q=-0.0 size=     679kB time=00:00:01.04 bitrate=5346.8kbits/s speed=0.0618x    frame=   55 fps=3.1 q=-0.0 size=     679kB time=00:00:01.08 bitrate=5148.9kbits/s speed=0.0618x    frame=   57 fps=3.1 q=-0.0 size=     679kB time=00:00:01.12 bitrate=4965.2kbits/s speed=0.0618x    frame=   59 fps=3.1 q=-0.0 size=     679kB time=00:00:01.16 bitrate=4794.1kbits/s speed=0.0614x    frame=   61 fps=3.1 q=-0.0 size=     780kB time=00:00:01.20 bitrate=5320.1kbits/s speed=0.0614x    frame=   64 fps=3.1 q=-0.0 size=     780kB time=00:00:01.26 bitrate=5067.0kbits/s speed=0.062x    frame=   66 fps=3.1 q=-0.0 size=     780kB time=00:00:01.30 bitrate=4911.2kbits/s speed=0.062x    frame=   68 fps=3.1 q=-0.0 size=     780kB time=00:00:01.34 bitrate=4764.7kbits/s speed=0.0621x    frame=   70 fps=3.1 q=-0.0 size=     780kB time=00:00:01.38 bitrate=4626.7kbits/s speed=0.0611x    frame=   72 fps=3.1 q=-0.0 size=     780kB time=00:00:01.42 bitrate=4496.4kbits/s speed=0.0611x    frame=   74 fps=3.1 q=-0.0 size=     851kB time=00:00:01.46 bitrate=4772.6kbits/s speed=0.0615x    frame=   76 fps=3.1 q=-0.0 size=     851kB time=00:00:01.50 bitrate=4645.4kbits/s speed=0.0611x    frame=   78 fps=3.1 q=-0.0 size=     851kB time=00:00:01.54 bitrate=4524.8kbits/s speed=0.0612x    frame=   80 fps=3.1 q=-0.0 size=     851kB time=00:00:01.58 bitrate=4410.4kbits/s speed=0.0613x    frame=   82 fps=3.1 q=-0.0 size=     851kB time=00:00:01.62 bitrate=4301.5kbits/s speed=0.0613x    frame=   84 fps=3.1 q=-0.0 size=     851kB time=00:00:01.66 bitrate=4197.9kbits/s speed=0.0613x    frame=   87 fps=3.1 q=-0.0 size=     962kB time=00:00:01.72 bitrate=4581.3kbits/s speed=0.0617x    frame=   89 fps=3.1 q=-0.0 size=     962kB time=00:00:01.76 bitrate=4477.3kbits/s speed=0.0618x    frame=   91 fps=3.1 q=-0.0 size=     962kB time=00:00:01.80 bitrate=4377.8kbits/s speed=0.0618x    frame=   93 fps=3.1 q=-0.0 size=     962kB time=00:00:01.84 bitrate=4282.7kbits/s speed=0.0619x    frame=   95 fps=3.1 q=-0.0 size=     962kB time=00:00:01.88 bitrate=4191.7kbits/s speed=0.0619x    frame=   97 fps=3.1 q=-0.0 size=    1034kB time=00:00:01.92 bitrate=4407.7kbits/s speed=0.0619x    frame=   98 fps=3.1 q=-0.0 size=    1034kB time=00:00:01.94 bitrate=4362.3kbits/s speed=0.0615x    frame=  100 fps=3.1 q=-0.0 size=    1034kB time=00:00:01.98 bitrate=4274.2kbits/s speed=0.0608x    frame=  102 fps=3.1 q=-0.0 size=    1034kB time=00:00:02.02 bitrate=4189.6kbits/s speed=0.0609x    frame=  104 fps=3.1 q=-0.0 size=    1034kB time=00:00:02.06 bitrate=4108.3kbits/s speed=0.0609x    frame=  106 fps=3.1 q=-0.0 size=    1034kB time=00:00:02.10 bitrate=4030.1kbits/s speed=0.0609x    frame=  108 fps=3.1 q=-0.0 size=    1034kB time=00:00:02.14 bitrate=3954.8kbits/s speed=0.0609x    frame=  111 fps=3.1 q=-0.0 size=    1139kB time=00:00:02.20 bitrate=4239.9kbits/s speed=0.0613x    frame=  113 fps=3.1 q=-0.0 size=    1139kB time=00:00:02.24 bitrate=4164.3kbits/s speed=0.0613x    frame=  115 fps=3.1 q=-0.0 size=    1139kB time=00:00:02.28 bitrate=4091.2kbits/s speed=0.0614x    frame=  117 fps=3.1 q=-0.0 size=    1139kB time=00:00:02.32 bitrate=4020.7kbits/s speed=0.0614x    frame=  119 fps=3.1 q=-0.0 size=    1139kB time=00:00:02.36 bitrate=3952.6kbits/s speed=0.0614x    frame=  121 fps=3.1 q=-0.0 size=    1211kB time=00:00:02.40 bitrate=4132.2kbits/s speed=0.0614x    frame=  124 fps=3.1 q=-0.0 size=    1211kB time=00:00:02.46 bitrate=4031.5kbits/s speed=0.0617x    frame=  126 fps=3.1 q=-0.0 size=    1211kB time=00:00:02.50 bitrate=3967.0kbits/s speed=0.0618x    frame=  128 fps=3.1 q=-0.0 size=    1211kB time=00:00:02.54 bitrate=3904.6kbits/s speed=0.0618x    frame=  130 fps=3.1 q=-0.0 size=    1211kB time=00:00:02.58 bitrate=3844.1kbits/s speed=0.0618x    frame=  132 fps=3.1 q=-0.0 size=    1211kB time=00:00:02.62 bitrate=3785.4kbits/s speed=0.0618x    frame=  135 fps=3.1 q=-0.0 size=    1316kB time=00:00:02.68 bitrate=4019.9kbits/s speed=0.062x    frame=  137 fps=3.1 q=-0.0 size=    1316kB time=00:00:02.72 bitrate=3960.8kbits/s speed=0.0621x    frame=  139 fps=3.1 q=-0.0 size=    1316kB time=00:00:02.76 bitrate=3903.5kbits/s speed=0.0621x    frame=  141 fps=3.1 q=-0.0 size=    1316kB time=00:00:02.80 bitrate=3847.7kbits/s speed=0.0621x    frame=  143 fps=3.1 q=-0.0 size=    1316kB time=00:00:02.84 bitrate=3793.5kbits/s speed=0.0621x    frame=  145 fps=3.1 q=-0.0 size=    1387kB time=00:00:02.88 bitrate=3945.2kbits/s speed=0.0621x    frame=  148 fps=3.1 q=-0.0 size=    1387kB time=00:00:02.94 bitrate=3864.7kbits/s speed=0.0623x    frame=  150 fps=3.1 q=-0.0 size=    1387kB time=00:00:02.98 bitrate=3812.8kbits/s speed=0.0623x    frame=  152 fps=3.1 q=-0.0 size=    1387kB time=00:00:03.02 bitrate=3762.3kbits/s speed=0.0623x    frame=  154 fps=3.1 q=-0.0 size=    1387kB time=00:00:03.06 bitrate=3713.2kbits/s speed=0.0623x    frame=  156 fps=3.1 q=-0.0 size=    1387kB time=00:00:03.10 bitrate=3665.3kbits/s speed=0.0623x    frame=  159 fps=3.1 q=-0.0 size=    1491kB time=00:00:03.16 bitrate=3865.2kbits/s speed=0.0625x    frame=  161 fps=3.1 q=-0.0 size=    1491kB time=00:00:03.20 bitrate=3816.9kbits/s speed=0.0625x    frame=  163 fps=3.1 q=-0.0 size=    1491kB time=00:00:03.24 bitrate=3769.8kbits/s speed=0.0626x    frame=  165 fps=3.1 q=-0.0 size=    1491kB time=00:00:03.28 bitrate=3723.8kbits/s speed=0.0626x    frame=  167 fps=3.1 q=-0.0 size=    1491kB time=00:00:03.32 bitrate=3678.9kbits/s speed=0.0626x    frame=  169 fps=3.1 q=-0.0 size=    1563kB time=00:00:03.36 bitrate=3809.1kbits/s speed=0.0626x    frame=  172 fps=3.2 q=-0.0 size=    1563kB time=00:00:03.42 bitrate=3742.3kbits/s speed=0.0628x    frame=  174 fps=3.2 q=-0.0 size=    1563kB time=00:00:03.46 bitrate=3699.0kbits/s speed=0.0628x    frame=  176 fps=3.2 q=-0.0 size=    1563kB time=00:00:03.50 bitrate=3656.8kbits/s speed=0.0628x    frame=  178 fps=3.2 q=-0.0 size=    1563kB time=00:00:03.54 bitrate=3615.4kbits/s speed=0.0628x    frame=  180 fps=3.2 q=-0.0 size=    1563kB time=00:00:03.58 bitrate=3575.1kbits/s speed=0.0628x    frame=  183 fps=3.2 q=-0.0 size=    1666kB time=00:00:03.64 bitrate=3747.7kbits/s speed=0.063x    frame=  185 fps=3.2 q=-0.0 size=    1666kB time=00:00:03.68 bitrate=3707.0kbits/s speed=0.063x    frame=  187 fps=3.2 q=-0.0 size=    1666kB time=00:00:03.72 bitrate=3667.1kbits/s speed=0.063x    frame=  189 fps=3.2 q=-0.0 size=    1666kB time=00:00:03.76 bitrate=3628.1kbits/s speed=0.063x    frame=  191 fps=3.2 q=-0.0 size=    1666kB time=00:00:03.80 bitrate=3589.9kbits/s speed=0.063x    frame=  193 fps=3.2 q=-0.0 size=    1737kB time=00:00:03.84 bitrate=3704.3kbits/s speed=0.063x    frame=  196 fps=3.2 q=-0.0 size=    1737kB time=00:00:03.90 bitrate=3647.3kbits/s speed=0.0631x    frame=  198 fps=3.2 q=-0.0 size=    1737kB time=00:00:03.94 bitrate=3610.3kbits/s speed=0.0631x    frame=  200 fps=3.2 q=-0.0 size=    1737kB time=00:00:03.98 bitrate=3574.0kbits/s speed=0.0631x    frame=  202 fps=3.2 q=-0.0 size=    1737kB time=00:00:04.02 bitrate=3538.4kbits/s speed=0.0631x    frame=  204 fps=3.2 q=-0.0 size=    1737kB time=00:00:04.06 bitrate=3503.6kbits/s speed=0.0631x    frame=  207 fps=3.2 q=-0.0 size=    1841kB time=00:00:04.12 bitrate=3659.4kbits/s speed=0.0633x    frame=  209 fps=3.2 q=-0.0 size=    1841kB time=00:00:04.16 bitrate=3624.2kbits/s speed=0.0633x    frame=  211 fps=3.2 q=-0.0 size=    1841kB time=00:00:04.20 bitrate=3589.7kbits/s speed=0.0633x    frame=  213 fps=3.2 q=-0.0 size=    1841kB time=00:00:04.24 bitrate=3555.8kbits/s speed=0.0633x    frame=  215 fps=3.2 q=-0.0 size=    1841kB time=00:00:04.28 bitrate=3522.6kbits/s speed=0.0632x    frame=  217 fps=3.2 q=-0.0 size=    1913kB time=00:00:04.32 bitrate=3626.1kbits/s speed=0.0632x    frame=  219 fps=3.2 q=-0.0 size=    1913kB time=00:00:04.36 bitrate=3592.9kbits/s speed=0.0632x    frame=  220 fps=3.2 q=-0.0 size=    1913kB time=00:00:04.38 bitrate=3576.5kbits/s speed=0.0628x    frame=  222 fps=3.2 q=-0.0 size=    1913kB time=00:00:04.42 bitrate=3544.1kbits/s speed=0.0628x    frame=  224 fps=3.2 q=-0.0 size=    1913kB time=00:00:04.46 bitrate=3512.3kbits/s speed=0.0628x    frame=  225 fps=3.1 q=-0.0 size=    1913kB time=00:00:04.48 bitrate=3496.7kbits/s speed=0.0625x    frame=  227 fps=3.1 q=-0.0 size=    1913kB time=00:00:04.52 bitrate=3465.7kbits/s speed=0.0625x    frame=  229 fps=3.1 q=-0.0 size=    2021kB time=00:00:04.56 bitrate=3629.3kbits/s speed=0.0625x    frame=  232 fps=3.1 q=-0.0 size=    2021kB time=00:00:04.62 bitrate=3582.2kbits/s speed=0.0626x    frame=  234 fps=3.1 q=-0.0 size=    2021kB time=00:00:04.66 bitrate=3551.4kbits/s speed=0.0626x    frame=  236 fps=3.1 q=-0.0 size=    2021kB time=00:00:04.70 bitrate=3521.2kbits/s speed=0.0626x    frame=  238 fps=3.1 q=-0.0 size=    2021kB time=00:00:04.74 bitrate=3491.5kbits/s speed=0.0626x    frame=  240 fps=3.1 q=-0.0 size=    2021kB time=00:00:04.78 bitrate=3462.3kbits/s speed=0.0626x    frame=  243 fps=3.1 q=-0.0 size=    2092kB time=00:00:04.84 bitrate=3540.6kbits/s speed=0.0624x    frame=  245 fps=3.1 q=-0.0 size=    2092kB time=00:00:04.88 bitrate=3511.6kbits/s speed=0.0624x    frame=  247 fps=3.1 q=-0.0 size=    2092kB time=00:00:04.92 bitrate=3483.0kbits/s speed=0.0624x    frame=  249 fps=3.1 q=-0.0 size=    2092kB time=00:00:04.96 bitrate=3454.9kbits/s speed=0.0624x    frame=  251 fps=3.1 q=-0.0 size=    2092kB time=00:00:05.00 bitrate=3427.3kbits/s speed=0.0624x    frame=  253 fps=3.1 q=-0.0 size=    2203kB time=00:00:05.04 bitrate=3580.1kbits/s speed=0.0624x    frame=  256 fps=3.1 q=-0.0 size=    2203kB time=00:00:05.10 bitrate=3538.0kbits/s speed=0.0626x    frame=  258 fps=3.1 q=-0.0 size=    2203kB time=00:00:05.14 bitrate=3510.5kbits/s speed=0.0626x    frame=  260 fps=3.1 q=-0.0 size=    2203kB time=00:00:05.18 bitrate=3483.4kbits/s speed=0.0626x    frame=  262 fps=3.1 q=-0.0 size=    2203kB time=00:00:05.22 bitrate=3456.7kbits/s speed=0.0626x    frame=  264 fps=3.1 q=-0.0 size=    2203kB time=00:00:05.26 bitrate=3430.4kbits/s speed=0.0625x    frame=  267 fps=3.1 q=-0.0 size=    2276kB time=00:00:05.32 bitrate=3504.5kbits/s speed=0.0625x    frame=  269 fps=3.1 q=-0.0 size=    2276kB time=00:00:05.36 bitrate=3478.4kbits/s speed=0.0625x    frame=  271 fps=3.1 q=-0.0 size=    2276kB time=00:00:05.40 bitrate=3452.6kbits/s speed=0.0625x    frame=  273 fps=3.1 q=-0.0 size=    2276kB time=00:00:05.44 bitrate=3427.3kbits/s speed=0.0625x    frame=  275 fps=3.1 q=-0.0 size=    2276kB time=00:00:05.48 bitrate=3402.2kbits/s speed=0.0625x    frame=  277 fps=3.1 q=-0.0 size=    2349kB time=00:00:05.52 bitrate=3485.2kbits/s speed=0.0625x    frame=  280 fps=3.1 q=-0.0 size=    2349kB time=00:00:05.58 bitrate=3447.8kbits/s speed=0.0626x    frame=  282 fps=3.1 q=-0.0 size=    2349kB time=00:00:05.62 bitrate=3423.2kbits/s speed=0.0626x    frame=  283 fps=3.1 q=-0.0 size=    2349kB time=00:00:05.64 bitrate=3411.1kbits/s speed=0.0625x    frame=  285 fps=3.1 q=-0.0 size=    2349kB time=00:00:05.68 bitrate=3387.1kbits/s speed=0.0625x    frame=  287 fps=3.1 q=-0.0 size=    2349kB time=00:00:05.72 bitrate=3363.4kbits/s speed=0.0625x    frame=  289 fps=3.1 q=-0.0 size=    2464kB time=00:00:05.76 bitrate=3503.9kbits/s speed=0.0625x    frame=  292 fps=3.1 q=-0.0 size=    2464kB time=00:00:05.82 bitrate=3467.7kbits/s speed=0.0626x    frame=  294 fps=3.1 q=-0.0 size=    2464kB time=00:00:05.86 bitrate=3444.1kbits/s speed=0.0626x    frame=  296 fps=3.1 q=-0.0 size=    2464kB time=00:00:05.90 bitrate=3420.7kbits/s speed=0.0626x    frame=  298 fps=3.1 q=-0.0 size=    2464kB time=00:00:05.94 bitrate=3397.7kbits/s speed=0.0626x    frame=  300 fps=3.1 q=-0.0 size=    2464kB time=00:00:05.98 bitrate=3375.0kbits/s speed=0.0626x    frame=  303 fps=3.1 q=-0.0 size=    2536kB time=00:00:06.04 bitrate=3438.6kbits/s speed=0.0627x    frame=  305 fps=3.1 q=-0.0 size=    2536kB time=00:00:06.08 bitrate=3416.0kbits/s speed=0.0627x    frame=  307 fps=3.1 q=-0.0 size=    2536kB time=00:00:06.12 bitrate=3393.6kbits/s speed=0.0626x    frame=  309 fps=3.1 q=-0.0 size=    2536kB time=00:00:06.16 bitrate=3371.6kbits/s speed=0.0626x    frame=  311 fps=3.1 q=-0.0 size=    2536kB time=00:00:06.20 bitrate=3349.9kbits/s speed=0.0626x    frame=  313 fps=3.1 q=-0.0 size=    2607kB time=00:00:06.24 bitrate=3421.4kbits/s speed=0.0626x    frame=  316 fps=3.1 q=-0.0 size=    2607kB time=00:00:06.30 bitrate=3388.8kbits/s speed=0.0627x    frame=  318 fps=3.1 q=-0.0 size=    2607kB time=00:00:06.34 bitrate=3367.5kbits/s speed=0.0627x    frame=  320 fps=3.1 q=-0.0 size=    2607kB time=00:00:06.38 bitrate=3346.4kbits/s speed=0.0627x    frame=  322 fps=3.1 q=-0.0 size=    2607kB time=00:00:06.42 bitrate=3325.5kbits/s speed=0.0624x    frame=  324 fps=3.1 q=-0.0 size=    2607kB time=00:00:06.46 bitrate=3304.9kbits/s speed=0.0624x    frame=  326 fps=3.1 q=-0.0 size=    2715kB time=00:00:06.50 bitrate=3421.8kbits/s speed=0.0624x    frame=  328 fps=3.1 q=-0.0 size=    2715kB time=00:00:06.54 bitrate=3400.9kbits/s speed=0.0625x    frame=  330 fps=3.1 q=-0.0 size=    2715kB time=00:00:06.58 bitrate=3380.2kbits/s speed=0.0625x    frame=  331 fps=3.1 q=-0.0 size=    2715kB time=00:00:06.60 bitrate=3370.0kbits/s speed=0.0623x    frame=  333 fps=3.1 q=-0.0 size=    2715kB time=00:00:06.64 bitrate=3349.7kbits/s speed=0.0623x    frame=  335 fps=3.1 q=-0.0 size=    2715kB time=00:00:06.68 bitrate=3329.6kbits/s speed=0.062x    frame=  337 fps=3.1 q=-0.0 size=    2787kB time=00:00:06.72 bitrate=3396.9kbits/s speed=0.062x    frame=  340 fps=3.1 q=-0.0 size=    2787kB time=00:00:06.78 bitrate=3366.9kbits/s speed=0.0621x    frame=  342 fps=3.1 q=-0.0 size=    2787kB time=00:00:06.82 bitrate=3347.1kbits/s speed=0.0621x    frame=  343 fps=3.1 q=-0.0 size=    2787kB time=00:00:06.84 bitrate=3337.3kbits/s speed=0.0619x    frame=  345 fps=3.1 q=-0.0 size=    2787kB time=00:00:06.88 bitrate=3317.9kbits/s speed=0.0619x    frame=  347 fps=3.1 q=-0.0 size=    2787kB time=00:00:06.92 bitrate=3298.8kbits/s speed=0.0617x    frame=  348 fps=3.1 q=-0.0 size=    2787kB time=00:00:06.94 bitrate=3289.2kbits/s speed=0.0615x    frame=  349 fps=3.1 q=-0.0 size=    2898kB time=00:00:06.96 bitrate=3410.8kbits/s speed=0.0613x    frame=  352 fps=3.1 q=-0.0 size=    2898kB time=00:00:07.02 bitrate=3381.7kbits/s speed=0.0614x    frame=  354 fps=3.1 q=-0.0 size=    2898kB time=00:00:07.06 bitrate=3362.5kbits/s speed=0.0614x    frame=  356 fps=3.1 q=-0.0 size=    2898kB time=00:00:07.10 bitrate=3343.6kbits/s speed=0.0614x    frame=  358 fps=3.1 q=-0.0 size=    2898kB time=00:00:07.14 bitrate=3324.9kbits/s speed=0.0614x    frame=  360 fps=3.1 q=-0.0 size=    2898kB time=00:00:07.18 bitrate=3306.3kbits/s speed=0.0614x    frame=  362 fps=3.1 q=-0.0 size=    2969kB time=00:00:07.22 bitrate=3368.8kbits/s speed=0.0615x    frame=  364 fps=3.1 q=-0.0 size=    2969kB time=00:00:07.26 bitrate=3350.2kbits/s speed=0.0615x    frame=  366 fps=3.1 q=-0.0 size=    2969kB time=00:00:07.30 bitrate=3331.9kbits/s speed=0.0615x    frame=  368 fps=3.1 q=-0.0 size=    2969kB time=00:00:07.34 bitrate=3313.7kbits/s speed=0.0615x    frame=  370 fps=3.1 q=-0.0 size=    2969kB time=00:00:07.38 bitrate=3295.8kbits/s speed=0.0615x    frame=  372 fps=3.1 q=-0.0 size=    2969kB time=00:00:07.42 bitrate=3278.0kbits/s speed=0.0615x    frame=  374 fps=3.1 q=-0.0 size=    3082kB time=00:00:07.46 bitrate=3384.5kbits/s speed=0.0616x    frame=  376 fps=3.1 q=-0.0 size=    3082kB time=00:00:07.50 bitrate=3366.5kbits/s speed=0.0616x    frame=  378 fps=3.1 q=-0.0 size=    3082kB time=00:00:07.54 bitrate=3348.6kbits/s speed=0.0614x    frame=  380 fps=3.1 q=-0.0 size=    3082kB time=00:00:07.58 bitrate=3330.9kbits/s speed=0.0614x    frame=  382 fps=3.1 q=-0.0 size=    3082kB time=00:00:07.62 bitrate=3313.4kbits/s speed=0.0614x    frame=  384 fps=3.1 q=-0.0 size=    3082kB time=00:00:07.66 bitrate=3296.1kbits/s speed=0.0614x    frame=  387 fps=3.1 q=-0.0 size=    3156kB time=00:00:07.72 bitrate=3348.8kbits/s speed=0.0615x    frame=  389 fps=3.1 q=-0.0 size=    3156kB time=00:00:07.76 bitrate=3331.5kbits/s speed=0.0615x    frame=  391 fps=3.1 q=-0.0 size=    3156kB time=00:00:07.80 bitrate=3314.5kbits/s speed=0.0615x    frame=  393 fps=3.1 q=-0.0 size=    3156kB time=00:00:07.84 bitrate=3297.6kbits/s speed=0.0615x    frame=  394 fps=3.1 q=-0.0 size=    3156kB time=00:00:07.86 bitrate=3289.2kbits/s speed=0.0614x    frame=  396 fps=3.1 q=-0.0 size=    3156kB time=00:00:07.90 bitrate=3272.5kbits/s speed=0.0614x    frame=  398 fps=3.1 q=-0.0 size=    3230kB time=00:00:07.94 bitrate=3332.2kbits/s speed=0.0613x    frame=  400 fps=3.1 q=-0.0 size=    3230kB time=00:00:07.98 bitrate=3315.5kbits/s speed=0.0613x    frame=  402 fps=3.1 q=-0.0 size=    3230kB time=00:00:08.02 bitrate=3299.0kbits/s speed=0.0613x    frame=  404 fps=3.1 q=-0.0 size=    3230kB time=00:00:08.06 bitrate=3282.6kbits/s speed=0.0613x    frame=  406 fps=3.1 q=-0.0 size=    3230kB time=00:00:08.10 bitrate=3266.4kbits/s speed=0.0613x    frame=  408 fps=3.1 q=-0.0 size=    3230kB time=00:00:08.14 bitrate=3250.4kbits/s speed=0.0612x    frame=  411 fps=3.1 q=-0.0 size=    3346kB time=00:00:08.20 bitrate=3342.3kbits/s speed=0.0611x    frame=  413 fps=3.1 q=-0.0 size=    3346kB time=00:00:08.24 bitrate=3326.1kbits/s speed=0.0611x    frame=  415 fps=3.1 q=-0.0 size=    3346kB time=00:00:08.28 bitrate=3310.0kbits/s speed=0.0611x    frame=  417 fps=3.1 q=-0.0 size=    3346kB time=00:00:08.32 bitrate=3294.1kbits/s speed=0.0611x    frame=  418 fps=3.1 q=-0.0 size=    3346kB time=00:00:08.34 bitrate=3286.2kbits/s speed=0.061x    frame=  419 fps=3.0 q=-0.0 size=    3346kB time=00:00:08.36 bitrate=3278.3kbits/s speed=0.0608x    frame=  421 fps=3.0 q=-0.0 size=    3421kB time=00:00:08.40 bitrate=3335.6kbits/s speed=0.0606x    frame=  424 fps=3.0 q=-0.0 size=    3421kB time=00:00:08.46 bitrate=3311.9kbits/s speed=0.0605x    frame=  426 fps=3.0 q=-0.0 size=    3421kB time=00:00:08.50 bitrate=3296.3kbits/s speed=0.0605x    frame=  428 fps=3.0 q=-0.0 size=    3421kB time=00:00:08.54 bitrate=3280.9kbits/s speed=0.0605x    frame=  430 fps=3.0 q=-0.0 size=    3421kB time=00:00:08.58 bitrate=3265.6kbits/s speed=0.0605x    frame=  432 fps=3.0 q=-0.0 size=    3421kB time=00:00:08.62 bitrate=3250.5kbits/s speed=0.0605x    frame=  434 fps=3.0 q=-0.0 size=    3495kB time=00:00:08.66 bitrate=3306.2kbits/s speed=0.0606x    frame=  436 fps=3.0 q=-0.0 size=    3495kB time=00:00:08.70 bitrate=3291.0kbits/s speed=0.0604x    frame=  438 fps=3.0 q=-0.0 size=    3495kB time=00:00:08.74 bitrate=3276.0kbits/s speed=0.0604x    frame=  440 fps=3.0 q=-0.0 size=    3495kB time=00:00:08.78 bitrate=3261.0kbits/s speed=0.0604x    frame=  442 fps=3.0 q=-0.0 size=    3495kB time=00:00:08.82 bitrate=3246.2kbits/s speed=0.0603x    frame=  444 fps=3.0 q=-0.0 size=    3495kB time=00:00:08.86 bitrate=3231.6kbits/s speed=0.0603x    frame=  446 fps=3.0 q=-0.0 size=    3569kB time=00:00:08.90 bitrate=3284.7kbits/s speed=0.0603x    frame=  448 fps=3.0 q=-0.0 size=    3569kB time=00:00:08.94 bitrate=3270.0kbits/s speed=0.0604x    frame=  450 fps=3.0 q=-0.0 size=    3569kB time=00:00:08.98 bitrate=3255.4kbits/s speed=0.0604x    frame=  452 fps=3.0 q=-0.0 size=    3569kB time=00:00:09.02 bitrate=3241.0kbits/s speed=0.0604x    frame=  454 fps=3.0 q=-0.0 size=    3569kB time=00:00:09.06 bitrate=3226.7kbits/s speed=0.0602x    frame=  456 fps=3.0 q=-0.0 size=    3569kB time=00:00:09.10 bitrate=3212.5kbits/s speed=0.0602x    frame=  458 fps=3.0 q=-0.0 size=    3683kB time=00:00:09.14 bitrate=3300.7kbits/s speed=0.0602x    frame=  460 fps=3.0 q=-0.0 size=    3683kB time=00:00:09.18 bitrate=3286.3kbits/s speed=0.0602x    frame=  462 fps=3.0 q=-0.0 size=    3683kB time=00:00:09.22 bitrate=3272.0kbits/s speed=0.0602x    frame=  464 fps=3.0 q=-0.0 size=    3683kB time=00:00:09.26 bitrate=3257.9kbits/s speed=0.0602x    frame=  466 fps=3.0 q=-0.0 size=    3683kB time=00:00:09.30 bitrate=3243.9kbits/s speed=0.0602x    frame=  468 fps=3.0 q=-0.0 size=    3683kB time=00:00:09.34 bitrate=3230.0kbits/s speed=0.0602x    frame=  470 fps=3.0 q=-0.0 size=    3758kB time=00:00:09.38 bitrate=3281.6kbits/s speed=0.0603x    frame=  472 fps=3.0 q=-0.0 size=    3758kB time=00:00:09.42 bitrate=3267.7kbits/s speed=0.0603x    frame=  474 fps=3.0 q=-0.0 size=    3758kB time=00:00:09.46 bitrate=3253.8kbits/s speed=0.0603x    frame=  476 fps=3.0 q=-0.0 size=    3758kB time=00:00:09.50 bitrate=3240.1kbits/s speed=0.0603x    frame=  478 fps=3.0 q=-0.0 size=    3758kB time=00:00:09.54 bitrate=3226.6kbits/s speed=0.0603x    frame=  480 fps=3.0 q=-0.0 size=    3758kB time=00:00:09.58 bitrate=3213.1kbits/s speed=0.0603x    frame=  482 fps=3.0 q=-0.0 size=    3875kB time=00:00:09.62 bitrate=3299.2kbits/s speed=0.0604x    frame=  484 fps=3.0 q=-0.0 size=    3875kB time=00:00:09.66 bitrate=3285.6kbits/s speed=0.0604x    frame=  485 fps=3.0 q=-0.0 size=    3875kB time=00:00:09.68 bitrate=3278.8kbits/s speed=0.0603x    frame=  487 fps=3.0 q=-0.0 size=    3875kB time=00:00:09.72 bitrate=3265.3kbits/s speed=0.0603x    frame=  489 fps=3.0 q=-0.0 size=    3875kB time=00:00:09.76 bitrate=3251.9kbits/s speed=0.0603x    frame=  491 fps=3.0 q=-0.0 size=    3875kB time=00:00:09.80 bitrate=3238.6kbits/s speed=0.0603x    frame=  493 fps=3.0 q=-0.0 size=    3949kB time=00:00:09.84 bitrate=3287.2kbits/s speed=0.0603x    frame=  496 fps=3.0 q=-0.0 size=    3949kB time=00:00:09.90 bitrate=3267.3kbits/s speed=0.0604x    frame=  498 fps=3.0 q=-0.0 size=    3949kB time=00:00:09.94 bitrate=3254.1kbits/s speed=0.0603x    frame=  500 fps=3.0 q=-0.0 size=    3949kB time=00:00:09.98 bitrate=3241.1kbits/s speed=0.0603x    frame=  500 fps=3.0 q=-0.0 Lsize=    4021kB time=00:00:09.98 bitrate=3300.7kbits/s speed=0.0602x    
video:4013kB audio:0kB subtitle:0kB other streams:0kB global headers:3kB muxing overhead: 0.215861%
bench: utime=142.844s
bench: maxrss=162396kB
